<svg xmlns="http://www.w3.org/2000/svg" viewBox="0 0 1002.24 415.8">
  <title>Vibin</title>
  <g id="Layer_2" data-name="Layer 2">
    <g id="Layer_1-2" data-name="Layer 1">
      <path
        d="M228.6,57.6l-.3,4.5c-.21,3-.3,5.1-.3,6.3a50.8,50.8,0,0,1,.6,9,141.18,141.18,0,0,1-2.4,24.3q-2.4,13.5-3.6,18.9l-16.8,88.8q-7.2,36-15.6,60.6-1.8,5.4-1.8,7.2c0,1.2,1.59,3.81,4.8,7.8l9,9c2.4,1.6,4.59,1.6,6.6,0l7.2-5.4q19.8-17.4,28.2-33.6a19.16,19.16,0,0,1,8.1-8.7,20.57,20.57,0,0,1,11.7-2.1,19.8,19.8,0,0,1,6,1.2c3.6,1.6,5,4.41,4.2,8.4a2,2,0,0,0-.6,1.5,2.06,2.06,0,0,1-.6,1.5l-8.4,14.4q-9.6,16.2-13.8,21.6-17.42,21-45,26.4a66,66,0,0,1-10.2.6,157.83,157.83,0,0,1-16.2-1.2h-3c-1.6,0-2.61,1.2-3,3.6l-21.6,54a162.47,162.47,0,0,1-8.4,16.8q-3,8.42-12,12a64.69,64.69,0,0,1-29.4,6.6,124,124,0,0,1-13.8-1.2,21.87,21.87,0,0,1-15.6-10.8,300.18,300.18,0,0,1-31.8-70.8Q29.4,292.22,21,241.2L7.2,152.4Q1.8,111.6,1.8,84q0-12-1.2-36L0,30V24Q0,10.82,12,9a55.29,55.29,0,0,1,9.6-.6A59.39,59.39,0,0,1,55.8,18.6q8.4,5.4,8.4,15.6L66,72l.6,15q.59,7.2,1.5,21.3t2.1,24.3a179.73,179.73,0,0,0,2.4,18.6c1.2,6.81,2,11.8,2.4,15l2.4,15.6q2.38,16.2,10.2,58.8a491.73,491.73,0,0,0,22.2,90.6A86.4,86.4,0,0,0,114,342l1.8,1.8,1.2-1.2a3.44,3.44,0,0,0,1.2-2.4l18-40.2a35.88,35.88,0,0,0,1.2-6,16,16,0,0,0-1.8-7.2q-8.41-18-13.8-43.8a334,334,0,0,1-7.2-69q0-64.2,22.2-127.2a153.73,153.73,0,0,1,13.2-27Q160.2,4.2,180,.6a25.71,25.71,0,0,1,6-.6,37.76,37.76,0,0,1,19.8,5.4A35.12,35.12,0,0,1,219.6,21q7.2,13.81,8.4,33.6C228.39,56.61,228.6,57.6,228.6,57.6ZM191.1,71.7c1-7,1.7-12.3,2.1-15.9q-.6-6-4.8-26.4v-.6l-1.2-1.2a3.51,3.51,0,0,0-2.4.6,130,130,0,0,0-14.4,30q-7.2,24-10.2,36-7.8,33-7.8,62.4,0,20.4,4.2,48.6a53.11,53.11,0,0,0,3,11.4,13.5,13.5,0,0,0,2.4-6,38.53,38.53,0,0,0,.6-4.8l1.2-3.6,24-112.8A178.85,178.85,0,0,0,191.1,71.7Z"
      />
      <path
        d="M399.59,251.4l-1.8,7.2L376.19,330a85.12,85.12,0,0,1-9,19.2q-17.4,31.2-19.8,35.4a68.06,68.06,0,0,1-6.3,9,95.06,95.06,0,0,1-6.3,7.2q-10.2,12-29.4,13.8-24.6,1.22-43.2-10.8-10.2-6-13.2-19.2a271.38,271.38,0,0,1-3-37.8q-.59-10.2-.6-30,0-22.8,1.2-50.7t1.8-39.3l1.2-21v-1.2c.41-5.19,1.6-8.9,3.6-11.1s5.6-3.5,10.8-3.9a55.37,55.37,0,0,1,9.6-.6,59.67,59.67,0,0,1,27,6c.8.4,3.6,2,8.4,4.8q6,4.2,5.4,13.2l-1.8,41.4-.6,19.8h.6l-.6,17.4q-1.2,22.81-1.2,34.2t1.2,33l.6,15c0,.81.6,1.8,1.8,3l2.4-1.2,2.4-3,12.6-21.6,7.8-13.2q3.6-7.2,5.7-12.6t3.3-9l19.2-43.2c1.2-2.79,2.4-6,3.6-9.6a98.77,98.77,0,0,1,5.4-12.6q3-9,12-9a14.93,14.93,0,0,1,6.6,1.8C398.59,245.61,400,248.2,399.59,251.4Zm-150-130.8a60.36,60.36,0,0,1,.9-8.1c.6-3.8,1.3-7.29,2.1-10.5q2.4-9.59,13.8-12.6a32.59,32.59,0,0,1,7.2-.6q6,0,18,2.4a40.41,40.41,0,0,1,16.8,7.8,17.25,17.25,0,0,1,7.8,15,62.08,62.08,0,0,1-.9,10.2l-1.5,9a23.58,23.58,0,0,1-3,8.4,12.89,12.89,0,0,1-9.6,9q-9,1.8-9.6,1.8-18-1.2-27.6-6.6Q248.39,138,249.59,120.6Z"
      />
      <path
        d="M619.19,248.7a5.43,5.43,0,0,1-1.8,3.9,91.49,91.49,0,0,1-9,6.6L573,278.4c-1.6.81-3.51,1.71-5.7,2.7s-3.51,2-3.9,3a10.69,10.69,0,0,0-.6,3.9v21.6a168.54,168.54,0,0,1-3.6,35.4q-5.4,23.4-15,38.4-21.6,32.4-64.8,32.4-18,0-29.4-6-1.8-1.2-4.8-3a20.71,20.71,0,0,0-5.4-2.4,16.24,16.24,0,0,0-5.1,1.2,54.54,54.54,0,0,1-5.7,1.8,49.61,49.61,0,0,1-8.4,1.2q-5.4,0-16.2-2.4a85.86,85.86,0,0,1-18.6-7.8q-9-6.6-9-16.8,0-9-1.2-28.2l-.6-13.8-1.8-13.2q-3.6-31.18-3.6-92.4,0-96.6.6-145.2,0-18.58,1.2-58.2c0-2.4.81-6.39,2.4-12Q377.39,9,387.59,9l9,.6a87.3,87.3,0,0,1,18.6,7.8A37,37,0,0,1,432,42.6a112.31,112.31,0,0,1,.6,13.8v49.2l1.8,78.6v32.4h.6c2.4-4.4,3.6-7,3.6-7.8q7.2-17.4,27.6-42,7.2-9.59,20.4-9.6,42-1.8,64.2,35.4,4.19,6,6.6,19.8a136.66,136.66,0,0,1,3.6,25.2l1.8,12.6v4.2c.8,2.4,2,3.21,3.6,2.4l5.4-2.4L597,243a16,16,0,0,1,7.2-1.8c2.4,0,5.6.81,9.6,2.4q3,1.22,3,1.8C618.38,246.21,619.19,247.3,619.19,248.7Zm-120.6,18.9-.6-13.8q0-9.59-1.2-27.6,0-1.8-5.4-29.4c-.4-3.2-2-3.8-4.8-1.8q-10.21,10.22-15,19.8-13.2,24-23.4,57.6a310.42,310.42,0,0,0-8.4,46.2c-.4,2-.81,4.6-1.2,7.8a64,64,0,0,0-.6,7.2V339l1.8,2.4,2.4-1.2a186.59,186.59,0,0,1,53.4-49.8q3-1.8,3-6Zm-5.4,67.8c-1.2.4-1.8.81-1.8,1.2a95.52,95.52,0,0,0-18.6,26.4,32,32,0,0,0-3.6,14.4l.6,3.6,3-1.8Q486,360,491.39,342.6A44.66,44.66,0,0,0,493.19,335.4Z"
      />
      <path
        d="M744.58,251.4l-1.8,7.2L721.18,330a85.12,85.12,0,0,1-9,19.2q-17.4,31.2-19.8,35.4a68.06,68.06,0,0,1-6.3,9,95.06,95.06,0,0,1-6.3,7.2q-10.2,12-29.4,13.8-24.6,1.22-43.2-10.8-10.2-6-13.2-19.2a271.38,271.38,0,0,1-3-37.8q-.59-10.2-.6-30,0-22.8,1.2-50.7t1.8-39.3l1.2-21v-1.2c.41-5.19,1.6-8.9,3.6-11.1s5.6-3.5,10.8-3.9a55.37,55.37,0,0,1,9.6-.6,59.67,59.67,0,0,1,27,6c.8.4,3.6,2,8.4,4.8q6,4.2,5.4,13.2l-1.8,41.4-.6,19.8h.6l-.6,17.4q-1.2,22.81-1.2,34.2t1.2,33l.6,15c0,.81.6,1.8,1.8,3l2.4-1.2,2.4-3,12.6-21.6,7.8-13.2q3.6-7.2,5.7-12.6t3.3-9l19.2-43.2c1.2-2.79,2.4-6,3.6-9.6a98.77,98.77,0,0,1,5.4-12.6q3-9,12-9a14.93,14.93,0,0,1,6.6,1.8C743.58,245.61,745,248.2,744.58,251.4Zm-150-130.8a60.36,60.36,0,0,1,.9-8.1c.6-3.8,1.3-7.29,2.1-10.5q2.4-9.59,13.8-12.6a32.59,32.59,0,0,1,7.2-.6q6,0,18,2.4a40.41,40.41,0,0,1,16.8,7.8,17.25,17.25,0,0,1,7.8,15,62.08,62.08,0,0,1-.9,10.2l-1.5,9a23.58,23.58,0,0,1-3,8.4,12.89,12.89,0,0,1-9.6,9q-9,1.8-9.6,1.8-18-1.2-27.6-6.6Q593.38,138,594.58,120.6Z"
      />
      <path
        d="M1002,249.6a72.81,72.81,0,0,1-3,13.8q-4.82,21.6-7.8,31.8a102.62,102.62,0,0,1-5.4,18q-15,37.8-26.4,59.4-6.61,10.8-14.4,21.6-13.22,21-44.4,21a67.2,67.2,0,0,1-24-4.8,43.42,43.42,0,0,1-12-7.2A14.94,14.94,0,0,1,858,393a17.57,17.57,0,0,0-.9-4.2,19,19,0,0,1-.9-5.4Q855,363,855,352.8l.6-21L858,261q.59-18,3-51l-.6-9.6a10.21,10.21,0,0,0-4.8,3.9,29.08,29.08,0,0,1-2.4,3.3q-12.6,18.6-22.2,49.2l-19.2,66.6-13.8,54q-1.22,6.62-6,15.6a23.45,23.45,0,0,1-15.6,13.2c-1.2.4-3.51,1-6.9,1.8a40.42,40.42,0,0,1-9.3,1.2l-5.4-.6c-2-.39-5.31-1.1-9.9-2.1a62.84,62.84,0,0,1-12.3-3.9,26.44,26.44,0,0,1-6.6-4.2c-4-2.79-6-6.2-6-10.2q-3.6-27.58-3.6-30-1.8-30.6-1.8-60.6V277.2l1.8-67.8q0-6,1.2-18l1.8-18q.6-7.78,9.6-10.8a19.74,19.74,0,0,1,6-1.2l8.4-.6a63.54,63.54,0,0,1,27.6,6,21.08,21.08,0,0,1,6,3q9,5.4,7.2,15.6a641.87,641.87,0,0,0-3.6,67.2q0,18.6,1.2,54.6l3.6-10.8,7.8-22.2q7.2-21.6,13.2-36.6,12.6-31.8,28.2-51c1.2-1.59,3.09-3.9,5.7-6.9s4.89-5.49,6.9-7.5q9.59-11.38,27-13.2a72.47,72.47,0,0,1,26.4,2.4l5.4,1.8q18,6.62,19.8,24.6,1.2,12,1.2,18t-1.2,18v3.6l-1.2,26.4q-1.22,18.6-2.4,55.8-.6,18.6-.6,57a31.86,31.86,0,0,0,.6,7.2c0,.81.2,1.2.6,1.2l1.2-.6q10.2-14.4,12-18.6,3.6-6.6,20.4-40.2,16.2-37.2,23.4-61.8l1.8-4.8a14.88,14.88,0,0,1,5.4-5.1,14.18,14.18,0,0,1,7.2-2.1A10.68,10.68,0,0,1,999,243C1001.77,244.2,1002.78,246.4,1002,249.6Z"
      />
    </g>
  </g>
</svg>
