<svg
   xmlns="http://www.w3.org/2000/svg"
   viewBox="0 0 512 512">
<title>Comments</title>

  <g
     transform="matrix(-1,0,0,1,512,0)">
    <g
       >
      <path
         style="stroke:#ffffff;stroke-opacity:1;fill:#ffffff;fill-opacity:1"
         d="M 256,0 C 114.848,0 0,114.848 0,256 0,305.216 13.792,352.48 39.936,393.216 L 1.152,490.048 C -1.216,496 0.16,502.784 4.704,507.328 7.744,510.368 11.84,512 16,512 c 2.016,0 4,-0.384 5.952,-1.152 l 96.832,-38.784 C 159.52,498.208 206.784,512 256,512 397.152,512 512,397.152 512,256 512,114.848 397.152,0 256,0 Z m 0,480 c -45.632,0 -89.312,-13.504 -126.272,-39.072 -2.688,-1.888 -5.888,-2.848 -9.088,-2.848 -2.016,0 -4.032,0.384 -5.952,1.152 l -69.952,28.032 28.032,-69.952 c 1.984,-4.992 1.344,-10.656 -1.696,-15.04 C 45.504,345.312 32,301.632 32,256 32,132.48 132.48,32 256,32 379.52,32 480,132.48 480,256 480,379.52 379.52,480 256,480 Z" />
      <rect
         transform="scale(-1,1)"
         y="369.90564"
         x="-166.83145"
         height="97.358383"
         width="122.09546"
         style="fill:#ffffff;fill-opacity:1;stroke:#ffffff;stroke-linecap:round;stroke-linejoin:round;stroke-opacity:1" />
    </g>
  </g>
  <g
     >
    <g
       >
      <path
         d="M272,288H144c-8.832,0-16,7.168-16,16c0,8.832,7.168,16,16,16h128c8.832,0,16-7.168,16-16    C288,295.168,280.832,288,272,288z" />
    </g>
  </g>
  <g
     >
    <g
       >
      <path
         d="M368,192H144c-8.832,0-16,7.168-16,16c0,8.832,7.168,16,16,16h224c8.832,0,16-7.168,16-16    C384,199.168,376.832,192,368,192z" />
    </g>
  </g>
  <ellipse
     ry="228.96179"
     rx="239.31685"
     cy="253.69888"
     cx="260.02698"
     style="fill:#ffffff;stroke:#ffffff;stroke-linecap:round;stroke-linejoin:round" />
</svg>
