<svg
 
   xmlns="http://www.w3.org/2000/svg"
   class="active"
   viewBox="0 -1 401.52289 401">
  
  <title
     >New Conversation</title>
  <path
     d="m 12.11047,187.96405 c 5.17287,0 9.3653,-4.47656 9.3653,-10.00001 V 89.174978 c 0.0184,-16.5625 12.58462,-29.98437 28.09592,-30 h 262.78088 c 15.51129,0.0156 28.07762,13.4375 28.09591,30 V 349.76483 c -0.0183,16.5586 -12.58462,29.98047 -28.09591,30 h -83.15364 c -5.17286,0 -9.36531,4.47657 -9.36531,10 0,5.51953 4.19245,10 9.36531,10 h 83.15364 c 25.8497,-0.0312 46.79725,-22.39843 46.82652,-50 V 89.171078 c -0.0293,-27.60156 -20.97682,-49.96875 -46.82652,-50 H 49.57169 c -25.8497,0.0312 -46.7972596,22.39844 -46.8265196,50 v 88.792962 c 0,5.52344 4.19245,10 9.3652996,10.00001 z m 0,0"
     style="stroke-width:0.967745" />
  <rect
     y="53.798393"
     x="17.841337"
     height="331.33911"
     width="327.51596"
     style="fill:#000000;fill-opacity:1;stroke-width:1.0139;stroke-linecap:round;stroke-linejoin:round" />
  <rect
     y="13.441405"
     x="316.15509"
     height="80.177231"
     width="71.943253"
     style="fill:#fffffc;fill-opacity:1;stroke-width:1.10402;stroke-linecap:round;stroke-linejoin:round" />
  <rect
     y="204.27219"
     x="132.54688"
     height="64.993439"
     width="56.072773"
     style="fill:#ffffff;fill-opacity:1;stroke-linecap:round;stroke-linejoin:round" />
  <rect
     transform="matrix(0.73797175,0.67483161,-0.70481839,0.70938779,0,0)"
     y="-167.60205"
     x="232.95988"
     height="214.19865"
     width="102.72633"
     style="fill:#ffffff;fill-opacity:1;stroke-width:1.43801;stroke-linecap:round;stroke-linejoin:round" />
  <path
     style="stroke-width:0.967745"
     d="m 349.16417,250.97266 c -5.17287,0 -9.3653,4.47656 -9.3653,10 v 88.78906 c -0.0184,16.5625 -12.58462,29.98437 -28.09592,30 H 48.922064 c -15.511285,-0.0156 -28.07762,-13.4375 -28.095911,-30 V 89.171875 c 0.01829,-16.558594 12.584626,-29.980469 28.095911,-30 h 83.153646 c 5.17286,0 9.36531,-4.476563 9.36531,-10 0,-5.519531 -4.19245,-10 -9.36531,-10 H 48.922064 c -25.849701,0.03125 -46.7972505,22.398437 -46.8265172,50 V 349.76562 c 0.02927,27.60157 20.9768162,49.96875 46.8265172,50 H 311.70295 c 25.8497,-0.0312 46.79726,-22.39843 46.82652,-50 v -88.79296 c 0,-5.52344 -4.19245,-10 -9.3653,-10 z m 0,0" />
  <path
     d="m376.628906 13.441406c-17.574218-17.574218-46.066406-17.574218-63.640625 0l-178.40625 178.40625c-1.222656 1.222656-2.105469 2.738282-2.566406 4.402344l-23.460937 84.699219c-.964844 3.472656.015624 7.191406 2.5625 9.742187 2.550781 2.546875 6.269531 3.527344 9.742187 2.566406l84.699219-23.464843c1.664062-.460938 3.179687-1.34375 4.402344-2.566407l178.402343-178.410156c17.546875-17.585937 17.546875-46.054687 0-63.640625zm-220.257812 184.90625 146.011718-146.015625 47.089844 47.089844-146.015625 146.015625zm-9.40625 18.875 37.621094 37.625-52.039063 14.417969zm227.257812-142.546875-10.605468 10.605469-47.09375-47.09375 10.609374-10.605469c9.761719-9.761719 25.589844-9.761719 35.351563 0l11.738281 11.734375c9.746094 9.773438 9.746094 25.589844 0 35.359375zm0 0" />
</svg>
