<svg
   
   xmlns="http://www.w3.org/2000/svg"
  class="inactive"

   viewBox="0 -1 401.52289 401">
  
  <title
     >New Conversation</title>
  <path
     style="stroke-width:0.967745"
     d="m 349.16417,250.97266 c -5.17287,0 -9.3653,4.47656 -9.3653,10 v 88.78906 c -0.0184,16.5625 -12.58462,29.98437 -28.09592,30 H 48.922064 c -15.511285,-0.0156 -28.07762,-13.4375 -28.095911,-30 V 89.171875 c 0.01829,-16.558594 12.584626,-29.980469 28.095911,-30 h 83.153646 c 5.17286,0 9.36531,-4.476563 9.36531,-10 0,-5.519531 -4.19245,-10 -9.36531,-10 H 48.922064 c -25.849701,0.03125 -46.7972505,22.398437 -46.8265172,50 V 349.76562 c 0.02927,27.60157 20.9768162,49.96875 46.8265172,50 H 311.70295 c 25.8497,-0.0312 46.79726,-22.39843 46.82652,-50 v -88.79296 c 0,-5.52344 -4.19245,-10 -9.3653,-10 z m 0,0" />
  <path
     d="m376.628906 13.441406c-17.574218-17.574218-46.066406-17.574218-63.640625 0l-178.40625 178.40625c-1.222656 1.222656-2.105469 2.738282-2.566406 4.402344l-23.460937 84.699219c-.964844 3.472656.015624 7.191406 2.5625 9.742187 2.550781 2.546875 6.269531 3.527344 9.742187 2.566406l84.699219-23.464843c1.664062-.460938 3.179687-1.34375 4.402344-2.566407l178.402343-178.410156c17.546875-17.585937 17.546875-46.054687 0-63.640625zm-220.257812 184.90625 146.011718-146.015625 47.089844 47.089844-146.015625 146.015625zm-9.40625 18.875 37.621094 37.625-52.039063 14.417969zm227.257812-142.546875-10.605468 10.605469-47.09375-47.09375 10.609374-10.605469c9.761719-9.761719 25.589844-9.761719 35.351563 0l11.738281 11.734375c9.746094 9.773438 9.746094 25.589844 0 35.359375zm0 0" />
</svg>
