<svg class="inactive" xmlns="http://www.w3.org/2000/svg" viewBox="0 0 512 512">
                        <title>Upload</title>
                      <g>
                        <path
                           d="M 391.8382,241 H 271 V 116.13483 c 0,-8.284 -6.716,-15 -15,-15 -8.284,0 -15,6.716 -15,15 V 241 H 113.83371 c -8.284,0 -15.000002,6.716 -15.000002,15 0,8.284 6.716002,15 15.000002,15 H 241 v 128.89213 c 0,8.284 6.716,15 15,15 8.284,0 15,-6.716 15,-15 V 271 h 120.8382 c 8.284,0 15,-6.716 15,-15 0,-8.284 -6.716,-15 -15,-15 z" />
                        <path
                           d="m437 0h-362c-41.355 0-75 33.645-75 75v362c0 41.355 33.645 75 75 75h362c41.355 0 75-33.645 75-75v-362c0-41.355-33.645-75-75-75zm45 437c0 24.813-20.187 45-45 45h-362c-24.813 0-45-20.187-45-45v-362c0-24.813 20.187-45 45-45h362c24.813 0 45 20.187 45 45z" />
                      </g>
                    </svg>